<svg xmlns="http://www.w3.org/2000/svg" width="143" height="25" viewBox="0 0 143 25" fill="none"><path d="M0.397017 2.18182V24H3.52912V8.20099H3.73153L10.1662 23.968H12.7656L19.2003 8.21165H19.4027V24H22.5348V2.18182H18.5398L11.5938 19.142H11.3381L4.39205 2.18182H0.397017ZM46.2733 13.0909C46.2733 6.11293 42.0971 1.88352 36.4508 1.88352C30.7832 1.88352 26.6177 6.11293 26.6177 13.0909C26.6177 20.0582 30.7832 24.2983 36.4508 24.2983C42.0971 24.2983 46.2733 20.0689 46.2733 13.0909ZM43.0133 13.0909C43.0133 18.407 40.2008 21.294 36.4508 21.294C32.6902 21.294 29.8883 18.407 29.8883 13.0909C29.8883 7.77486 32.6902 4.88778 36.4508 4.88778C40.2008 4.88778 43.0133 7.77486 43.0133 13.0909ZM67.9876 2.18182H64.7276V18.2045H64.5252L53.4244 2.18182H50.3775V24H53.6694V7.99858H53.8718L64.962 24H67.9876V2.18182ZM91.742 13.0909C91.742 6.11293 87.5659 1.88352 81.9196 1.88352C76.252 1.88352 72.0865 6.11293 72.0865 13.0909C72.0865 20.0582 76.252 24.2983 81.9196 24.2983C87.5659 24.2983 91.742 20.0689 91.742 13.0909ZM88.4821 13.0909C88.4821 18.407 85.6696 21.294 81.9196 21.294C78.1589 21.294 75.3571 18.407 75.3571 13.0909C75.3571 7.77486 78.1589 4.88778 81.9196 4.88778C85.6696 4.88778 88.4821 7.77486 88.4821 13.0909Z" fill="#9BB8D3"></path><path d="M99.0142 24.315L101.714 3.945C101.804 3.275 101.689 2.795 101.369 2.505C101.049 2.205 100.359 2.015 99.2992 1.935L99.6742 1.155H109.154L108.794 1.935C107.514 1.995 106.629 2.195 106.139 2.535C105.649 2.865 105.344 3.435 105.224 4.245L103.139 19.32H103.244L114.314 5.295C115.114 4.285 115.404 3.52 115.184 3C114.974 2.48 114.184 2.125 112.814 1.935L113.174 1.155H122.054L121.694 1.935C120.744 2.085 119.964 2.28 119.354 2.52C118.754 2.75 118.204 3.085 117.704 3.525C117.214 3.965 116.659 4.575 116.039 5.355L100.979 24.315H99.0142ZM123.79 4.755C123.19 4.755 122.71 4.59 122.35 4.26C121.99 3.93 121.81 3.49 121.81 2.94C121.81 2.36 122.045 1.855 122.515 1.425C122.985 0.994998 123.52 0.779999 124.12 0.779999C124.68 0.779999 125.16 0.949999 125.56 1.29C125.97 1.62 126.175 2.035 126.175 2.535C126.175 3.095 125.93 3.605 125.44 4.065C124.95 4.525 124.4 4.755 123.79 4.755ZM117.22 24.315C116.55 24.315 116.02 24.16 115.63 23.85C115.24 23.54 115.045 23.09 115.045 22.5C115.045 22.25 115.08 21.95 115.15 21.6C115.22 21.24 115.345 20.865 115.525 20.475L120.28 10.2C120.34 10.07 120.375 9.96 120.385 9.87C120.405 9.78 120.415 9.705 120.415 9.645C120.415 9.455 120.295 9.36 120.055 9.36C119.705 9.36 119.285 9.53 118.795 9.87C118.305 10.2 117.835 10.645 117.385 11.205L116.665 10.65C117.395 9.8 118.2 9.14 119.08 8.67C119.97 8.2 120.84 7.965 121.69 7.965C122.35 7.965 122.885 8.11 123.295 8.4C123.705 8.69 123.91 9.1 123.91 9.63C123.91 9.9 123.865 10.22 123.775 10.59C123.695 10.95 123.575 11.315 123.415 11.685L118.705 21.66C118.655 21.75 118.625 21.83 118.615 21.9C118.605 21.96 118.6 22.015 118.6 22.065C118.6 22.405 118.78 22.575 119.14 22.575C119.43 22.575 119.795 22.405 120.235 22.065C120.685 21.715 121.395 21.05 122.365 20.07L123.055 20.49C122.055 21.72 121.045 22.665 120.025 23.325C119.005 23.985 118.07 24.315 117.22 24.315ZM133.732 24.315C132.962 24.315 132.372 24.07 131.962 23.58C131.562 23.09 131.282 22.29 131.122 21.18L130.642 18.135L129.202 20.1C128.172 21.49 127.222 22.49 126.352 23.1C125.492 23.7 124.587 24 123.637 24C122.897 24 122.312 23.84 121.882 23.52C121.452 23.19 121.237 22.765 121.237 22.245C121.237 21.815 121.392 21.445 121.702 21.135C122.002 20.825 122.377 20.67 122.827 20.67C123.157 20.67 123.417 20.755 123.607 20.925C123.797 21.085 123.952 21.275 124.072 21.495C124.202 21.705 124.337 21.895 124.477 22.065C124.627 22.225 124.827 22.305 125.077 22.305C125.467 22.305 125.882 22.1 126.322 21.69C126.772 21.27 127.252 20.73 127.762 20.07L130.447 16.605L129.547 10.71C129.497 10.39 129.427 10.175 129.337 10.065C129.257 9.945 129.122 9.885 128.932 9.885C128.612 9.885 128.287 10.005 127.957 10.245C127.637 10.475 127.257 10.875 126.817 11.445L126.187 11.1C126.777 10.17 127.512 9.415 128.392 8.835C129.282 8.255 130.142 7.965 130.972 7.965C132.142 7.965 132.822 8.665 133.012 10.065L133.492 13.365L134.467 12.075C135.477 10.715 136.407 9.74 137.257 9.15C138.117 8.56 139.017 8.265 139.957 8.265C140.697 8.265 141.282 8.43 141.712 8.76C142.142 9.08 142.357 9.5 142.357 10.02C142.357 10.45 142.207 10.82 141.907 11.13C141.607 11.44 141.227 11.595 140.767 11.595C140.427 11.595 140.162 11.515 139.972 11.355C139.792 11.185 139.637 10.99 139.507 10.77C139.387 10.55 139.252 10.36 139.102 10.2C138.962 10.03 138.762 9.945 138.502 9.945C138.122 9.945 137.707 10.155 137.257 10.575C136.817 10.995 136.342 11.535 135.832 12.195L133.702 14.925L134.497 20.445C134.637 21.405 134.762 22.035 134.872 22.335C134.992 22.625 135.167 22.77 135.397 22.77C135.667 22.77 135.972 22.635 136.312 22.365C136.652 22.085 137.137 21.57 137.767 20.82L138.442 21.24C137.802 22.21 137.067 22.965 136.237 23.505C135.417 24.045 134.582 24.315 133.732 24.315Z" fill="#101010"></path></svg>